# xmcd
#
# Track frame offsets:
# 150
# 18941
# 35140
# 50415
# 69378
# 86614
# 100868
# 117753
# 133400
# 151361
# 166812
# 179847
# 195893
# 220494
# 234748
# 251062
# 270049
# 295019
# 303189
#
# Disc length: 4289 seconds
#
# Revision: 0
# Processed by: cddbd v1.5.1PL0 Copyright (c) Steve Scherf et al.
# Submitted via: Audion 3.0.2 (http://www.panic.com/audion/)
#
DISCID=0810bf13
DTITLE=gg - ?Ë
DYEAR=1900
DGENRE=
TTITLE0=q
TTITLE1=d
TTITLE2=d
TTITLE3=f
TTITLE4=g
TTITLE5=gxx
TTITLE6=x
TTITLE7=r
TTITLE8=ee
TTITLE9=ss
TTITLE10=rr
TTITLE11=rr
TTITLE12=er
TTITLE13=ee
TTITLE14=ww
TTITLE15=ee
TTITLE16=rr
TTITLE17=ee
TTITLE18=dgg
EXTD=
EXTT0=
EXTT1=
EXTT2=
EXTT3=
EXTT4=
EXTT5=
EXTT6=
EXTT7=
EXTT8=
EXTT9=
EXTT10=
EXTT11=
EXTT12=
EXTT13=
EXTT14=
EXTT15=
EXTT16=
EXTT17=
EXTT18=
PLAYORDER=
